<svg xmlns="http://www.w3.org/2000/svg"
 xmlns:xlink="http://www.w3.org/1999/xlink"
 width="24px" height="22px"  viewBox="0 0 24 22">
<path fill-rule="evenodd"  fill="#b99403"
 d="M1.999939,20.999886 C1.999939,20.999886 5.54541,15.818069 5.54541,15.818069 C5.54541,15.818069 9.9956665,15.818069 9.9956665,15.818069 C9.9956665,15.818069 15.058838,15.818069 15.058838,15.818069 C15.058838,15.818069 19.509094,15.818069 19.509094,15.818069 C19.509094,15.818069 22.999939,20.999886 22.999939,20.999886 C22.999939,20.999886 1.999939,20.999886 1.999939,20.999886 ZM12.527283,14.954414 C9.635254,14.954414 7.2908325,11.7708435 7.2908325,8.908943 C7.2908325,8.908943 7.2908325,7.1816406 7.2908325,7.1816406 C7.2908325,4.3198547 9.635254,1.9999313 12.527283,1.9999313 C15.419189,1.9999313 17.76361,4.3198547 17.76361,7.1816406 C17.76361,7.1816406 17.76361,8.908943 17.76361,8.908943 C17.76361,11.7708435 15.419189,14.954414 12.527283,14.954414 Z"/>
</svg>