<svg xmlns="http://www.w3.org/2000/svg"
 xmlns:xlink="http://www.w3.org/1999/xlink"
 width="27px" height="21px"  viewBox="0 0 27 21">
<path fill-rule="evenodd"  fill="#b99403"
 d="M25.73645,19.29966 C25.73645,19.29966 17.45996,11.023331 17.45996,11.023331 C17.45996,11.023331 23.58496,4.898262 23.58496,4.898262 C23.58496,4.898262 25.755371,2.7279587 25.755371,2.7279587 C25.896729,2.956833 26.0,3.2111359 26.0,3.4999084 C26.0,3.4999084 26.0,18.499855 26.0,18.499855 C26.0,18.800842 25.889038,19.064835 25.73645,19.29966 ZM23.054688,4.3679657 C23.054688,4.3679657 20.260986,7.161598 20.260986,7.161598 C20.260986,7.161598 14.914917,12.507668 14.914917,12.507668 C14.914917,12.507668 13.9765625,13.446182 13.9765625,13.446182 C13.9765625,13.446182 4.9453125,4.414749 4.9453125,4.414749 C4.9453125,4.414749 3.4451904,2.9147797 3.4451904,2.9147797 C3.4451904,2.9147797 2.7561035,2.2256165 2.7561035,2.2256165 C2.9785156,2.095047 3.2232666,1.9999313 3.5,1.9999313 C3.5,1.9999313 24.5,1.9999313 24.5,1.9999313 C24.764404,1.9999313 25.000122,2.0866852 25.21582,2.206787 C25.21582,2.206787 24.460815,2.9617844 24.460815,2.9617844 C24.460815,2.9617844 23.054688,4.3679657 23.054688,4.3679657 ZM2.914917,3.4451904 C2.914917,3.4451904 10.469727,10.999878 10.469727,10.999878 C10.469727,10.999878 2.225708,19.243843 2.225708,19.243843 C2.0950928,19.02124 2.0,18.776512 2.0,18.499855 C2.0,18.499855 2.0,3.4999084 2.0,3.4999084 C2.0,3.2232513 2.0950928,2.9784088 2.225708,2.7560272 C2.225708,2.7560272 2.914917,3.4451904 2.914917,3.4451904 C2.914917,3.4451904 2.914917,3.4451904 2.914917,3.4451904 ZM11.0,11.530182 C11.0,11.530182 11.316528,11.846802 11.316528,11.846802 C11.316528,11.846802 11.4296875,11.959862 11.4296875,11.959862 C11.4296875,11.959862 12.4609375,12.991188 12.4609375,12.991188 C12.4609375,12.991188 13.9609375,14.491158 13.9609375,14.491158 C13.9609375,14.491158 14.0234375,14.428627 14.0234375,14.428627 C14.0234375,14.428627 14.0390625,14.444153 14.0390625,14.444153 C14.0390625,14.444153 15.4453125,13.0379715 15.4453125,13.0379715 C15.4453125,13.0379715 16.929688,11.55352 16.929688,11.55352 C16.929688,11.55352 25.187866,19.811798 25.187866,19.811798 C24.979248,19.92189 24.75232,19.999939 24.5,19.999939 C24.5,19.999939 3.5,19.999939 3.5,19.999939 C3.2232666,19.999939 2.9785156,19.904602 2.7561035,19.774147 C2.7561035,19.774147 11.0,11.530182 11.0,11.530182 Z"/>
</svg>