<svg xmlns="http://www.w3.org/2000/svg"
 xmlns:xlink="http://www.w3.org/1999/xlink"
 width="87px" height="87px"  viewBox="0 0 87 87">
<path fill-rule="evenodd"  fill="#f5c506"
 d="M1.9920807,56.995583 C1.9920807,56.995583 15.072357,43.500336 15.072357,43.500336 C15.072357,43.500336 1.9920807,30.004211 1.9920807,30.004211 C1.9920807,30.004211 13.087387,30.004211 13.087387,30.004211 C13.087387,30.004211 26.16858,43.500336 26.16858,43.500336 C26.16858,43.500336 13.087387,56.995583 13.087387,56.995583 C13.087387,56.995583 1.9920807,56.995583 1.9920807,56.995583 ZM18.83136,56.995583 C18.83136,56.995583 31.911621,43.500336 31.911621,43.500336 C31.911621,43.500336 18.83136,30.004211 18.83136,30.004211 C18.83136,30.004211 29.926651,30.004211 29.926651,30.004211 C29.926651,30.004211 43.007843,43.500336 43.007843,43.500336 C43.007843,43.500336 29.926651,56.995583 29.926651,56.995583 C29.926651,56.995583 18.83136,56.995583 18.83136,56.995583 ZM85.00784,56.995583 C85.00784,56.995583 71.92758,43.500336 71.92758,43.500336 C71.92758,43.500336 85.00784,30.004211 85.00784,30.004211 C85.00784,30.004211 73.91254,30.004211 73.91254,30.004211 C73.91254,30.004211 60.831345,43.500336 60.831345,43.500336 C60.831345,43.500336 73.91254,56.995583 73.91254,56.995583 C73.91254,56.995583 85.00784,56.995583 85.00784,56.995583 ZM68.16858,56.995583 C68.16858,56.995583 55.088318,43.500336 55.088318,43.500336 C55.088318,43.500336 68.16858,30.004211 68.16858,30.004211 C68.16858,30.004211 57.073273,30.004211 57.073273,30.004211 C57.073273,30.004211 43.99208,43.500336 43.99208,43.500336 C43.99208,43.500336 57.073273,56.995583 57.073273,56.995583 C57.073273,56.995583 68.16858,56.995583 68.16858,56.995583 ZM30.004303,1.9919777 C30.004303,1.9919777 43.499496,15.072296 43.499496,15.072296 C43.499496,15.072296 56.995636,1.9919777 56.995636,1.9919777 C56.995636,1.9919777 56.995636,13.087376 56.995636,13.087376 C56.995636,13.087376 43.499496,26.168465 43.499496,26.168465 C43.499496,26.168465 30.004303,13.087376 30.004303,13.087376 C30.004303,13.087376 30.004303,1.9919777 30.004303,1.9919777 ZM30.004303,18.83131 C30.004303,18.83131 43.499496,31.911629 43.499496,31.911629 C43.499496,31.911629 56.995636,18.83131 56.995636,18.83131 C56.995636,18.83131 56.995636,29.926598 56.995636,29.926598 C56.995636,29.926598 43.499496,43.007797 43.499496,43.007797 C43.499496,43.007797 30.004303,29.926598 30.004303,29.926598 C30.004303,29.926598 30.004303,18.83131 30.004303,18.83131 ZM30.004303,85.00782 C30.004303,85.00782 43.499496,71.9275 43.499496,71.9275 C43.499496,71.9275 56.995636,85.00782 56.995636,85.00782 C56.995636,85.00782 56.995636,73.91253 56.995636,73.91253 C56.995636,73.91253 43.499496,60.831223 43.499496,60.831223 C43.499496,60.831223 30.004303,73.91253 30.004303,73.91253 C30.004303,73.91253 30.004303,85.00782 30.004303,85.00782 ZM30.004303,68.16849 C30.004303,68.16849 43.499496,55.088165 43.499496,55.088165 C43.499496,55.088165 56.995636,68.16849 56.995636,68.16849 C56.995636,68.16849 56.995636,57.073196 56.995636,57.073196 C56.995636,57.073196 43.499496,43.991997 43.499496,43.991997 C43.499496,43.991997 30.004303,57.073196 30.004303,57.073196 C30.004303,57.073196 30.004303,68.16849 30.004303,68.16849 Z"/>
</svg>