<svg xmlns="http://www.w3.org/2000/svg"
 xmlns:xlink="http://www.w3.org/1999/xlink"
 width="22px" height="23px"  viewBox="0 0 22 23">
<path fill-rule="evenodd"  fill="#b99403"
 d="M15.95813,3.5783997 C15.002686,4.5318832 15.002686,6.0779877 15.95813,7.0315857 C16.913696,7.9850693 18.46283,7.9850693 19.418274,7.0315857 C19.418274,7.0315857 20.818237,5.6344376 20.818237,5.6344376 C20.924927,6.035492 20.999939,6.448883 20.999939,6.8834076 C20.999939,9.58049 18.809082,11.766876 16.106628,11.766876 C15.665649,11.766876 15.24646,11.690033 14.840027,11.580826 C14.826294,11.595139 14.822388,11.61451 14.808228,11.628494 C14.808228,11.628494 6.157959,20.261406 6.157959,20.261406 C5.2024536,21.21511 3.6532593,21.21511 2.697815,20.261406 C1.7423096,19.307915 1.7423096,17.761925 2.697815,16.808327 C2.697815,16.808327 11.348145,8.175308 11.348145,8.175308 C11.362915,8.160667 11.383057,8.156593 11.398071,8.142281 C11.289612,7.7383575 11.213196,7.3215637 11.213196,6.8834076 C11.213196,4.1863174 13.404053,1.9999313 16.106628,1.9999313 C16.541992,1.9999313 16.956238,2.0746841 17.358093,2.1813583 C17.358093,2.1813583 15.95813,3.5783997 15.95813,3.5783997 ZM4.4848633,17.871353 C4.1470337,17.871353 3.873169,18.144707 3.873169,18.481804 C3.873169,18.819008 4.1470337,19.09214 4.4848633,19.09214 C4.822693,19.09214 5.0965576,18.819008 5.0965576,18.481804 C5.0965576,18.144707 4.822693,17.871353 4.4848633,17.871353 Z"/>
</svg>